<mxfile host="app.diagrams.net" agent="Mozilla/5.0 (Windows NT 10.0; Win64; x64) AppleWebKit/537.36 (KHTML, like Gecko) Chrome/140.0.0.0 Safari/537.36" version="28.2.3" pages="2">
  <diagram name="Page-1" id="EpyfGNlJfESf9vqUO6Xq">
    <mxGraphModel dx="352" dy="514" grid="1" gridSize="10" guides="1" tooltips="1" connect="1" arrows="1" fold="1" page="1" pageScale="1" pageWidth="850" pageHeight="1100" math="0" shadow="0">
      <root>
        <mxCell id="0" />
        <mxCell id="1" parent="0" />
        <mxCell id="OQFNa8gKAQg8WC0pTOx7-1" value="plan" style="rounded=0;whiteSpace=wrap;html=1;" vertex="1" parent="1">
          <mxGeometry x="150" y="20" width="120" height="50" as="geometry" />
        </mxCell>
        <mxCell id="OQFNa8gKAQg8WC0pTOx7-11" style="edgeStyle=orthogonalEdgeStyle;rounded=0;orthogonalLoop=1;jettySize=auto;html=1;exitX=0.55;exitY=0.95;exitDx=0;exitDy=0;exitPerimeter=0;entryX=0.5;entryY=0;entryDx=0;entryDy=0;" edge="1" parent="1" source="OQFNa8gKAQg8WC0pTOx7-2" target="OQFNa8gKAQg8WC0pTOx7-3">
          <mxGeometry relative="1" as="geometry" />
        </mxCell>
        <mxCell id="OQFNa8gKAQg8WC0pTOx7-2" value="develop" style="ellipse;shape=cloud;whiteSpace=wrap;html=1;" vertex="1" parent="1">
          <mxGeometry x="150" y="110" width="120" height="80" as="geometry" />
        </mxCell>
        <mxCell id="OQFNa8gKAQg8WC0pTOx7-13" style="edgeStyle=orthogonalEdgeStyle;rounded=0;orthogonalLoop=1;jettySize=auto;html=1;exitX=0.5;exitY=1;exitDx=0;exitDy=0;" edge="1" parent="1" source="OQFNa8gKAQg8WC0pTOx7-3" target="OQFNa8gKAQg8WC0pTOx7-6">
          <mxGeometry relative="1" as="geometry">
            <mxPoint x="210" y="290" as="targetPoint" />
            <Array as="points" />
          </mxGeometry>
        </mxCell>
        <mxCell id="OQFNa8gKAQg8WC0pTOx7-3" value="Build" style="rhombus;whiteSpace=wrap;html=1;" vertex="1" parent="1">
          <mxGeometry x="170" y="220" width="80" height="80" as="geometry" />
        </mxCell>
        <mxCell id="OQFNa8gKAQg8WC0pTOx7-15" style="edgeStyle=orthogonalEdgeStyle;rounded=0;orthogonalLoop=1;jettySize=auto;html=1;exitX=0.5;exitY=1;exitDx=0;exitDy=0;entryX=0.5;entryY=0;entryDx=0;entryDy=0;" edge="1" parent="1" source="OQFNa8gKAQg8WC0pTOx7-5" target="OQFNa8gKAQg8WC0pTOx7-7">
          <mxGeometry relative="1" as="geometry" />
        </mxCell>
        <mxCell id="OQFNa8gKAQg8WC0pTOx7-5" value="Release" style="shape=parallelogram;perimeter=parallelogramPerimeter;whiteSpace=wrap;html=1;fixedSize=1;" vertex="1" parent="1">
          <mxGeometry x="150" y="440" width="120" height="60" as="geometry" />
        </mxCell>
        <mxCell id="OQFNa8gKAQg8WC0pTOx7-14" style="edgeStyle=orthogonalEdgeStyle;rounded=0;orthogonalLoop=1;jettySize=auto;html=1;exitX=0.5;exitY=1;exitDx=0;exitDy=0;entryX=0.5;entryY=0;entryDx=0;entryDy=0;" edge="1" parent="1" source="OQFNa8gKAQg8WC0pTOx7-6" target="OQFNa8gKAQg8WC0pTOx7-5">
          <mxGeometry relative="1" as="geometry" />
        </mxCell>
        <mxCell id="OQFNa8gKAQg8WC0pTOx7-6" value="Test" style="ellipse;whiteSpace=wrap;html=1;" vertex="1" parent="1">
          <mxGeometry x="150" y="330" width="120" height="80" as="geometry" />
        </mxCell>
        <mxCell id="OQFNa8gKAQg8WC0pTOx7-17" style="edgeStyle=orthogonalEdgeStyle;rounded=0;orthogonalLoop=1;jettySize=auto;html=1;entryX=0.5;entryY=0;entryDx=0;entryDy=0;" edge="1" parent="1" source="OQFNa8gKAQg8WC0pTOx7-7" target="OQFNa8gKAQg8WC0pTOx7-8">
          <mxGeometry relative="1" as="geometry">
            <mxPoint x="210" y="660" as="targetPoint" />
          </mxGeometry>
        </mxCell>
        <mxCell id="OQFNa8gKAQg8WC0pTOx7-7" value="Deploy" style="shape=hexagon;perimeter=hexagonPerimeter2;whiteSpace=wrap;html=1;fixedSize=1;" vertex="1" parent="1">
          <mxGeometry x="150" y="540" width="120" height="80" as="geometry" />
        </mxCell>
        <mxCell id="OQFNa8gKAQg8WC0pTOx7-18" style="edgeStyle=orthogonalEdgeStyle;rounded=0;orthogonalLoop=1;jettySize=auto;html=1;entryX=0.5;entryY=0;entryDx=0;entryDy=0;" edge="1" parent="1" source="OQFNa8gKAQg8WC0pTOx7-8" target="OQFNa8gKAQg8WC0pTOx7-9">
          <mxGeometry relative="1" as="geometry" />
        </mxCell>
        <mxCell id="OQFNa8gKAQg8WC0pTOx7-8" value="Operate" style="shape=document;whiteSpace=wrap;html=1;boundedLbl=1;" vertex="1" parent="1">
          <mxGeometry x="150" y="680" width="120" height="80" as="geometry" />
        </mxCell>
        <mxCell id="OQFNa8gKAQg8WC0pTOx7-9" value="Monitor" style="shape=step;perimeter=stepPerimeter;whiteSpace=wrap;html=1;fixedSize=1;" vertex="1" parent="1">
          <mxGeometry x="150" y="820" width="120" height="80" as="geometry" />
        </mxCell>
        <mxCell id="OQFNa8gKAQg8WC0pTOx7-12" style="edgeStyle=orthogonalEdgeStyle;rounded=0;orthogonalLoop=1;jettySize=auto;html=1;exitX=0.5;exitY=1;exitDx=0;exitDy=0;entryX=0.493;entryY=0.083;entryDx=0;entryDy=0;entryPerimeter=0;" edge="1" parent="1" source="OQFNa8gKAQg8WC0pTOx7-1" target="OQFNa8gKAQg8WC0pTOx7-2">
          <mxGeometry relative="1" as="geometry" />
        </mxCell>
      </root>
    </mxGraphModel>
  </diagram>
  <diagram id="IUMO0a9qfcVqaG2G2uiL" name="Page-2">
    <mxGraphModel dx="1583" dy="1903" grid="1" gridSize="10" guides="1" tooltips="1" connect="1" arrows="1" fold="1" page="1" pageScale="1" pageWidth="850" pageHeight="1100" math="0" shadow="0">
      <root>
        <mxCell id="0" />
        <mxCell id="1" parent="0" />
        <mxCell id="MgDhHTvifsYYa5wAt_Ws-3" style="edgeStyle=orthogonalEdgeStyle;rounded=0;orthogonalLoop=1;jettySize=auto;html=1;exitX=0.5;exitY=1;exitDx=0;exitDy=0;entryX=0.5;entryY=0;entryDx=0;entryDy=0;" edge="1" parent="1" target="MgDhHTvifsYYa5wAt_Ws-2">
          <mxGeometry relative="1" as="geometry">
            <mxPoint x="190" y="50" as="sourcePoint" />
          </mxGeometry>
        </mxCell>
        <mxCell id="MgDhHTvifsYYa5wAt_Ws-4" style="edgeStyle=orthogonalEdgeStyle;rounded=0;orthogonalLoop=1;jettySize=auto;html=1;entryX=0;entryY=0.5;entryDx=0;entryDy=0;" edge="1" parent="1" source="MgDhHTvifsYYa5wAt_Ws-2" target="MgDhHTvifsYYa5wAt_Ws-5">
          <mxGeometry relative="1" as="geometry">
            <mxPoint x="280" y="320" as="targetPoint" />
          </mxGeometry>
        </mxCell>
        <mxCell id="MgDhHTvifsYYa5wAt_Ws-7" style="edgeStyle=orthogonalEdgeStyle;rounded=0;orthogonalLoop=1;jettySize=auto;html=1;entryX=1;entryY=0.5;entryDx=0;entryDy=0;" edge="1" parent="1" source="MgDhHTvifsYYa5wAt_Ws-2" target="MgDhHTvifsYYa5wAt_Ws-6">
          <mxGeometry relative="1" as="geometry" />
        </mxCell>
        <mxCell id="MgDhHTvifsYYa5wAt_Ws-9" style="edgeStyle=orthogonalEdgeStyle;rounded=0;orthogonalLoop=1;jettySize=auto;html=1;entryX=0.5;entryY=0;entryDx=0;entryDy=0;" edge="1" parent="1" source="MgDhHTvifsYYa5wAt_Ws-2" target="MgDhHTvifsYYa5wAt_Ws-8">
          <mxGeometry relative="1" as="geometry" />
        </mxCell>
        <mxCell id="MgDhHTvifsYYa5wAt_Ws-2" value="Designing&lt;div&gt;UI/UX&lt;/div&gt;" style="ellipse;whiteSpace=wrap;html=1;aspect=fixed;" vertex="1" parent="1">
          <mxGeometry x="150" y="100" width="80" height="80" as="geometry" />
        </mxCell>
        <mxCell id="MgDhHTvifsYYa5wAt_Ws-43" style="edgeStyle=orthogonalEdgeStyle;rounded=0;orthogonalLoop=1;jettySize=auto;html=1;exitX=0.5;exitY=1;exitDx=0;exitDy=0;entryX=1;entryY=0.5;entryDx=0;entryDy=0;" edge="1" parent="1" source="MgDhHTvifsYYa5wAt_Ws-5" target="MgDhHTvifsYYa5wAt_Ws-8">
          <mxGeometry relative="1" as="geometry" />
        </mxCell>
        <mxCell id="MgDhHTvifsYYa5wAt_Ws-5" value="Listing Restaurants&amp;nbsp;&lt;div&gt;and their cusines&lt;/div&gt;" style="ellipse;whiteSpace=wrap;html=1;aspect=fixed;" vertex="1" parent="1">
          <mxGeometry x="320" y="100" width="80" height="80" as="geometry" />
        </mxCell>
        <mxCell id="MgDhHTvifsYYa5wAt_Ws-42" style="edgeStyle=orthogonalEdgeStyle;rounded=0;orthogonalLoop=1;jettySize=auto;html=1;exitX=0.5;exitY=1;exitDx=0;exitDy=0;entryX=0;entryY=0.5;entryDx=0;entryDy=0;" edge="1" parent="1" source="MgDhHTvifsYYa5wAt_Ws-6" target="MgDhHTvifsYYa5wAt_Ws-8">
          <mxGeometry relative="1" as="geometry" />
        </mxCell>
        <mxCell id="MgDhHTvifsYYa5wAt_Ws-6" value="Customer sign up" style="ellipse;whiteSpace=wrap;html=1;aspect=fixed;" vertex="1" parent="1">
          <mxGeometry x="20" y="100" width="80" height="80" as="geometry" />
        </mxCell>
        <mxCell id="MgDhHTvifsYYa5wAt_Ws-10" style="edgeStyle=orthogonalEdgeStyle;rounded=0;orthogonalLoop=1;jettySize=auto;html=1;" edge="1" parent="1" source="MgDhHTvifsYYa5wAt_Ws-11">
          <mxGeometry relative="1" as="geometry">
            <mxPoint x="190" y="530" as="targetPoint" />
          </mxGeometry>
        </mxCell>
        <mxCell id="MgDhHTvifsYYa5wAt_Ws-8" value="Checkout&amp;nbsp;&lt;div&gt;page &amp;amp; RTS&lt;/div&gt;" style="ellipse;whiteSpace=wrap;html=1;aspect=fixed;" vertex="1" parent="1">
          <mxGeometry x="150" y="250" width="80" height="80" as="geometry" />
        </mxCell>
        <mxCell id="MgDhHTvifsYYa5wAt_Ws-15" style="edgeStyle=orthogonalEdgeStyle;rounded=0;orthogonalLoop=1;jettySize=auto;html=1;exitX=0.5;exitY=1;exitDx=0;exitDy=0;entryX=0.5;entryY=0;entryDx=0;entryDy=0;" edge="1" parent="1" source="MgDhHTvifsYYa5wAt_Ws-11" target="MgDhHTvifsYYa5wAt_Ws-14">
          <mxGeometry relative="1" as="geometry" />
        </mxCell>
        <mxCell id="MgDhHTvifsYYa5wAt_Ws-17" style="edgeStyle=orthogonalEdgeStyle;rounded=0;orthogonalLoop=1;jettySize=auto;html=1;exitX=0.5;exitY=1;exitDx=0;exitDy=0;entryX=0.5;entryY=0;entryDx=0;entryDy=0;" edge="1" parent="1" source="MgDhHTvifsYYa5wAt_Ws-14" target="MgDhHTvifsYYa5wAt_Ws-16">
          <mxGeometry relative="1" as="geometry" />
        </mxCell>
        <mxCell id="MgDhHTvifsYYa5wAt_Ws-14" value="No Bugs found" style="rhombus;whiteSpace=wrap;html=1;" vertex="1" parent="1">
          <mxGeometry x="150" y="510" width="80" height="80" as="geometry" />
        </mxCell>
        <mxCell id="MgDhHTvifsYYa5wAt_Ws-23" style="edgeStyle=orthogonalEdgeStyle;rounded=0;orthogonalLoop=1;jettySize=auto;html=1;" edge="1" parent="1" source="MgDhHTvifsYYa5wAt_Ws-16">
          <mxGeometry relative="1" as="geometry">
            <mxPoint x="190" y="890" as="targetPoint" />
          </mxGeometry>
        </mxCell>
        <mxCell id="MgDhHTvifsYYa5wAt_Ws-16" value="Writing permission&amp;nbsp;&lt;div&gt;for deployment&lt;/div&gt;" style="shape=parallelogram;perimeter=parallelogramPerimeter;whiteSpace=wrap;html=1;fixedSize=1;size=10;" vertex="1" parent="1">
          <mxGeometry x="130" y="640" width="120" height="70" as="geometry" />
        </mxCell>
        <mxCell id="MgDhHTvifsYYa5wAt_Ws-24" value="pushed to Appstore" style="shape=cylinder3;whiteSpace=wrap;html=1;boundedLbl=1;backgroundOutline=1;size=15;" vertex="1" parent="1">
          <mxGeometry x="150" y="760" width="80" height="90" as="geometry" />
        </mxCell>
        <mxCell id="MgDhHTvifsYYa5wAt_Ws-26" value="" style="ellipse;whiteSpace=wrap;html=1;" vertex="1" parent="1">
          <mxGeometry x="165" y="890" width="50" height="40" as="geometry" />
        </mxCell>
        <mxCell id="MgDhHTvifsYYa5wAt_Ws-28" value="" style="edgeStyle=orthogonalEdgeStyle;rounded=0;orthogonalLoop=1;jettySize=auto;html=1;" edge="1" parent="1" source="MgDhHTvifsYYa5wAt_Ws-8" target="MgDhHTvifsYYa5wAt_Ws-11">
          <mxGeometry relative="1" as="geometry">
            <mxPoint x="190" y="530" as="targetPoint" />
            <mxPoint x="190" y="330" as="sourcePoint" />
          </mxGeometry>
        </mxCell>
        <mxCell id="MgDhHTvifsYYa5wAt_Ws-11" value="Compiling to Ask" style="ellipse;whiteSpace=wrap;html=1;" vertex="1" parent="1">
          <mxGeometry x="130" y="380" width="120" height="80" as="geometry" />
        </mxCell>
        <mxCell id="MgDhHTvifsYYa5wAt_Ws-29" value="" style="endArrow=none;html=1;rounded=0;" edge="1" parent="1">
          <mxGeometry width="50" height="50" relative="1" as="geometry">
            <mxPoint x="150" y="940" as="sourcePoint" />
            <mxPoint x="230" y="940" as="targetPoint" />
            <Array as="points">
              <mxPoint x="190" y="940" />
            </Array>
          </mxGeometry>
        </mxCell>
        <mxCell id="MgDhHTvifsYYa5wAt_Ws-30" value="" style="endArrow=none;html=1;rounded=0;" edge="1" parent="1">
          <mxGeometry width="50" height="50" relative="1" as="geometry">
            <mxPoint x="140" y="1020" as="sourcePoint" />
            <mxPoint x="190" y="970" as="targetPoint" />
          </mxGeometry>
        </mxCell>
        <mxCell id="MgDhHTvifsYYa5wAt_Ws-31" value="" style="endArrow=none;html=1;rounded=0;" edge="1" parent="1">
          <mxGeometry width="50" height="50" relative="1" as="geometry">
            <mxPoint x="230" y="1010" as="sourcePoint" />
            <mxPoint x="190" y="970" as="targetPoint" />
          </mxGeometry>
        </mxCell>
        <mxCell id="MgDhHTvifsYYa5wAt_Ws-33" value="" style="endArrow=none;html=1;rounded=0;" edge="1" parent="1" target="MgDhHTvifsYYa5wAt_Ws-32">
          <mxGeometry width="50" height="50" relative="1" as="geometry">
            <mxPoint x="240" y="1030" as="sourcePoint" />
            <mxPoint x="190" y="970" as="targetPoint" />
          </mxGeometry>
        </mxCell>
        <mxCell id="MgDhHTvifsYYa5wAt_Ws-32" value="customer using Application" style="text;html=1;align=center;verticalAlign=middle;resizable=0;points=[];autosize=1;strokeColor=none;fillColor=none;" vertex="1" parent="1">
          <mxGeometry x="120" y="1028" width="170" height="30" as="geometry" />
        </mxCell>
        <mxCell id="MgDhHTvifsYYa5wAt_Ws-34" value="" style="endArrow=none;html=1;rounded=0;" edge="1" parent="1">
          <mxGeometry width="50" height="50" relative="1" as="geometry">
            <mxPoint x="189.52" y="970" as="sourcePoint" />
            <mxPoint x="189.51999999999998" y="930" as="targetPoint" />
            <Array as="points">
              <mxPoint x="189.51999999999998" y="930" />
            </Array>
          </mxGeometry>
        </mxCell>
        <mxCell id="MgDhHTvifsYYa5wAt_Ws-35" value="" style="edgeStyle=none;orthogonalLoop=1;jettySize=auto;html=1;rounded=0;" edge="1" parent="1">
          <mxGeometry width="100" relative="1" as="geometry">
            <mxPoint x="189.51999999999998" y="980" as="sourcePoint" />
            <mxPoint x="189.51999999999998" y="1010" as="targetPoint" />
            <Array as="points" />
          </mxGeometry>
        </mxCell>
        <mxCell id="MgDhHTvifsYYa5wAt_Ws-36" value="Recieved No feedback" style="ellipse;shape=cloud;whiteSpace=wrap;html=1;" vertex="1" parent="1">
          <mxGeometry x="130" y="1058" width="120" height="80" as="geometry" />
        </mxCell>
        <mxCell id="MgDhHTvifsYYa5wAt_Ws-47" value="MR Foods" style="ellipse;shape=cloud;whiteSpace=wrap;html=1;" vertex="1" parent="1">
          <mxGeometry x="130" y="-40" width="120" height="80" as="geometry" />
        </mxCell>
      </root>
    </mxGraphModel>
  </diagram>
</mxfile>
